<svg width="118" height="33" viewBox="0 0 118 33" fill="none" xmlns="http://www.w3.org/2000/svg">
<path d="M19.8805 15.3528C19.696 15.3249 19.527 15.2332 19.4031 15.0936C19.2792 14.954 19.2082 14.7754 19.2024 14.5888C19.1752 12.9809 18.5129 11.5967 17.2155 10.4364C16.0415 9.38153 14.7305 8.88876 13.2823 8.95808C12.5936 8.9762 11.9163 9.13773 11.2936 9.43236C10.6708 9.72699 10.1164 10.1482 9.66562 10.6692C9.04229 11.3643 8.61616 12.2134 8.43142 13.1286C8.23387 14.0452 8.29651 14.9988 8.61226 15.8818C8.94359 16.8024 9.5055 17.6227 10.2443 18.2643C10.8209 18.8029 11.5047 19.2138 12.2511 19.4701C12.9974 19.7264 13.7894 19.8224 14.5753 19.7516C14.7614 19.7394 14.9459 19.7926 15.0969 19.902C15.248 20.0113 15.3561 20.17 15.4026 20.3506C15.433 20.462 15.439 20.5786 15.4203 20.6925C15.4017 20.8064 15.3587 20.915 15.2944 21.0108C15.2301 21.1066 15.1459 21.1875 15.0476 21.248C14.9492 21.3084 14.839 21.347 14.7245 21.3611C13.9212 21.4442 13.1094 21.3728 12.3329 21.1508C11.1533 20.8046 10.07 20.1895 9.16832 19.3538C7.6463 17.9975 6.81748 16.3851 6.68185 14.5165C6.59998 13.633 6.70477 12.7422 6.98943 11.9018C7.2741 11.0614 7.73227 10.2903 8.33423 9.63847C9.14614 8.72011 10.1923 8.03959 11.3609 7.66963C12.5299 7.28794 13.7819 7.23786 14.9776 7.52496C16.2297 7.82596 17.3842 8.44137 18.3321 9.31297C18.9596 9.87178 19.4938 10.5273 19.9144 11.2547C20.3057 11.9077 20.586 12.6212 20.744 13.3659C20.8238 13.7752 20.8549 14.1925 20.8367 14.6092C20.8304 14.7238 20.7996 14.8358 20.7464 14.9375C20.6931 15.0393 20.6187 15.1284 20.5281 15.1989C20.4374 15.2694 20.3327 15.3196 20.221 15.3462C20.1093 15.3727 19.9932 15.375 19.8805 15.3528Z" fill="#136663"/>
<path d="M13.9025 32.2562L13.9025 32.2562L13.2893 32.8453L12.66 32.2723C9.79198 29.6561 6.65217 26.4605 4.2302 23.1354C1.80573 19.8067 0.113059 16.3648 0.113021 13.253C0.119578 9.76658 1.50884 6.42514 3.97601 3.96175C6.4432 1.49834 9.78682 0.114202 13.2733 0.113021C16.7593 0.114201 20.1026 1.49803 22.5697 3.96096C25.0368 6.42388 26.4263 9.7648 26.4335 13.2509C26.4334 16.4523 24.898 19.6743 22.5569 22.8663C20.2167 26.0573 17.0817 29.2046 13.9025 32.2562ZM13.1803 30.2842L13.2588 30.3575L13.336 30.2828C16.232 27.4806 19.0495 24.6019 21.1432 21.7383C23.2355 18.8765 24.6161 16.0151 24.6161 13.2484C24.6161 10.2398 23.4209 7.35439 21.2935 5.22698C19.1661 3.09958 16.2807 1.90441 13.2721 1.90441C10.2635 1.90441 7.37812 3.09958 5.25072 5.22698C3.12331 7.35439 1.92815 10.2398 1.92815 13.2484C1.92815 15.3832 2.93785 17.9561 4.84255 20.8321C6.74887 23.7106 9.55956 26.9045 13.1803 30.2842Z" fill="#136663" stroke="#99624D" stroke-width="0.226043"/>
<path d="M50.7715 23.1332H60.8304V27.1364H45.8008V5.99913H60.8281V9.84186H50.7692H50.6562V9.95488V14.3356V14.4486H50.7692H58.6513V18.2439H50.7715H50.6584V18.3569V23.0202V23.1332H50.7715Z" fill="#136663" stroke="#99624D" stroke-width="0.226043"/>
<path d="M69.029 23.1332H79.0879V27.1364H64.0583V5.99913H79.0856V9.84186H69.0267H68.9137V9.95488V14.3356V14.4486H69.0267H76.9043V18.2439H69.029H68.9159V18.3569V23.0202V23.1332H69.029Z" fill="#136663" stroke="#99624D" stroke-width="0.226043"/>
<path d="M87.2864 23.1332H97.3453V27.1364H82.3157V5.99913H97.343V9.84186H87.2841H87.1711V9.95488V14.3356V14.4486H87.2841H95.1685V18.2439H87.2864H87.1734V18.3569V23.0202V23.1332H87.2864Z" fill="#136663" stroke="#99624D" stroke-width="0.226043"/>
<path d="M105.544 19.1955H105.431V19.3085V27.1364H100.573V5.99913H108.878C110.75 5.99913 112.169 6.19923 113.145 6.59174C114.195 7.04349 115.101 7.77436 115.764 8.70491L115.764 8.70494L115.766 8.70756C116.531 9.71711 116.916 10.9594 116.916 12.4412C116.915 13.4846 116.705 14.5172 116.299 15.4783L116.299 15.4783L116.298 15.4811C115.94 16.3945 115.341 17.1941 114.566 17.7951L114.565 17.7959C113.92 18.3068 113.182 18.6875 112.392 18.9171C111.693 19.1013 110.586 19.1955 109.066 19.1955H105.544ZM105.259 15.4296V15.5427H105.372H108.627C109.881 15.5427 110.793 15.2536 111.325 14.6434C111.83 14.0832 112.108 13.3542 112.104 12.5997C112.123 12.1982 112.055 11.7972 111.904 11.4247C111.752 11.0511 111.521 10.715 111.227 10.4397L111.226 10.4389C110.639 9.90129 109.759 9.64294 108.607 9.64294H105.372H105.259V9.75596V15.4296Z" fill="#136663" stroke="#99624D" stroke-width="0.226043"/>
<path d="M41.2798 18.1827L41.2798 18.1827L41.2808 18.1841C41.9831 19.0948 42.3629 20.213 42.3604 21.363L42.3604 21.3641C42.3659 22.1267 42.2111 22.8819 41.9059 23.5808C41.6007 24.2797 41.152 24.9066 40.5889 25.4209L40.5888 25.4209L40.5868 25.4229C39.4075 26.5566 37.4772 27.1364 34.7676 27.1364H30.2151V23.3841H33.6487C34.9663 23.3841 35.9266 23.1582 36.4993 22.6797L36.4994 22.6798L36.5038 22.6756C36.7688 22.4287 36.9807 22.1303 37.1266 21.7987C37.2726 21.4672 37.3494 21.1094 37.3525 20.7472C37.3556 20.3849 37.2849 20.0259 37.1446 19.6919C37.0044 19.3579 36.7976 19.056 36.5369 18.8045L36.5367 18.8043C35.984 18.2739 35.0844 18.0224 33.868 18.0224H30.2151V14.4464H33.6013C34.3006 14.4464 34.8781 14.3775 35.3298 14.2361C35.7806 14.0949 36.1149 13.8784 36.3142 13.5769C36.659 13.0968 36.8539 12.5252 36.8743 11.9344L36.8743 11.9344L36.8743 11.9329C36.8853 11.4045 36.7187 10.8877 36.4011 10.4653C36.1506 10.0999 35.7867 9.82717 35.3657 9.68925L35.3657 9.68915L35.361 9.68784C34.9896 9.58353 34.2758 9.53445 33.2351 9.53445H30.2151V5.9901H34.7609C36.5317 5.9901 37.8517 6.20842 38.733 6.63435C39.6021 7.05484 40.3513 7.6874 40.9116 8.47368C41.4997 9.32468 41.7999 10.3416 41.7682 11.3755L41.7682 11.3755V11.379C41.7682 12.5435 41.4542 13.5057 40.8327 14.2735C40.2102 15.0425 39.2713 15.6261 38.0051 16.0179L37.6011 16.1429L38.0136 16.2361C39.4733 16.5661 40.5579 17.2172 41.2798 18.1827Z" fill="#136663" stroke="#99624D" stroke-width="0.226043"/>
</svg>
